<svg width="30" height="30" viewBox="0 0 30 30" fill="none" xmlns="http://www.w3.org/2000/svg">
<path fill-rule="evenodd" clip-rule="evenodd" d="M0.516865 29.4833C-0.172288 28.794 -0.172288 27.6766 0.516865 26.9877L23.9749 3.52941H8.82352C7.8489 3.52941 7.05881 2.73932 7.05881 1.76471C7.05881 0.790094 7.8489 0 8.82352 0H28.2353C28.7033 0 29.1522 0.18593 29.4833 0.516883C29.814 0.847801 30 1.29667 30 1.76471V21.1765C30 22.1511 29.2098 22.9412 28.2353 22.9412C27.2608 22.9412 26.4706 22.1511 26.4706 21.1765V6.0251L3.01251 29.4833C2.32336 30.1722 1.20602 30.1722 0.516865 29.4833Z" fill="white"/>
</svg>
