<svg width="25" height="24" viewBox="0 0 25 24" fill="none" xmlns="http://www.w3.org/2000/svg">
<path fill-rule="evenodd" clip-rule="evenodd" d="M2.5 18.5C2.5 18.2239 2.72386 18 3 18H22C22.2761 18 22.5 18.2239 22.5 18.5V21.5C22.5 21.7761 22.2761 22 22 22H3C2.72386 22 2.5 21.7761 2.5 21.5V18.5ZM3.5 19V21H21.5V19H3.5Z" fill="#2D2D2D"/>
<path fill-rule="evenodd" clip-rule="evenodd" d="M12.2671 2.05754C12.4129 1.98082 12.5871 1.98082 12.7329 2.05754L22.2329 7.05754C22.3972 7.144 22.5 7.31436 22.5 7.5V9.5C22.5 9.77614 22.2761 10 22 10H3C2.72386 10 2.5 9.77614 2.5 9.5V7.5C2.5 7.31436 2.60285 7.144 2.76713 7.05754L12.2671 2.05754ZM3.5 7.80187V9H21.5V7.80187L12.5 3.06502L3.5 7.80187Z" fill="#2D2D2D"/>
<path fill-rule="evenodd" clip-rule="evenodd" d="M10 9C10.2761 9 10.5 9.22386 10.5 9.5L10.5 18.5C10.5 18.7761 10.2761 19 10 19H5C4.72386 19 4.5 18.7761 4.5 18.5L4.5 9.5C4.5 9.22386 4.72386 9 5 9L10 9ZM9.5 10H5.5L5.5 18H9.5L9.5 10Z" fill="#2D2D2D"/>
<path fill-rule="evenodd" clip-rule="evenodd" d="M20 9C20.2761 9 20.5 9.22386 20.5 9.5V18.5C20.5 18.7761 20.2761 19 20 19H15C14.7239 19 14.5 18.7761 14.5 18.5L14.5 9.5C14.5 9.22386 14.7239 9 15 9L20 9ZM19.5 10H15.5L15.5 18H19.5V10Z" fill="#2D2D2D"/>
<path fill-rule="evenodd" clip-rule="evenodd" d="M12.5 5.5C11.9477 5.5 11.5 5.94772 11.5 6.5C11.5 7.05228 11.9477 7.5 12.5 7.5C13.0523 7.5 13.5 7.05228 13.5 6.5C13.5 5.94772 13.0523 5.5 12.5 5.5ZM10.5 6.5C10.5 5.39543 11.3954 4.5 12.5 4.5C13.6046 4.5 14.5 5.39543 14.5 6.5C14.5 7.60457 13.6046 8.5 12.5 8.5C11.3954 8.5 10.5 7.60457 10.5 6.5Z" fill="#2D2D2D"/>
</svg>
