<svg width="298" height="26" viewBox="0 0 298 26" fill="none" xmlns="http://www.w3.org/2000/svg">
<g clip-path="url(#clip0_349_4077)">
<g clip-path="url(#clip1_349_4077)">
<path d="M5.852 18.168C5.096 18.168 4.39133 18.0467 3.738 17.804C3.094 17.552 2.534 17.1973 2.058 16.74C1.582 16.2827 1.20867 15.746 0.938 15.13C0.676667 14.514 0.546 13.8373 0.546 13.1C0.546 12.3627 0.676667 11.686 0.938 11.07C1.20867 10.454 1.582 9.91733 2.058 9.46C2.54333 9.00267 3.108 8.65267 3.752 8.41C4.396 8.158 5.10067 8.032 5.866 8.032C6.71533 8.032 7.48067 8.18133 8.162 8.48C8.85267 8.76933 9.43133 9.19867 9.898 9.768L8.442 11.112C8.106 10.7293 7.73267 10.4447 7.322 10.258C6.91133 10.062 6.46333 9.964 5.978 9.964C5.52067 9.964 5.10067 10.0387 4.718 10.188C4.33533 10.3373 4.004 10.552 3.724 10.832C3.444 11.112 3.22467 11.4433 3.066 11.826C2.91667 12.2087 2.842 12.6333 2.842 13.1C2.842 13.5667 2.91667 13.9913 3.066 14.374C3.22467 14.7567 3.444 15.088 3.724 15.368C4.004 15.648 4.33533 15.8627 4.718 16.012C5.10067 16.1613 5.52067 16.236 5.978 16.236C6.46333 16.236 6.91133 16.1427 7.322 15.956C7.73267 15.76 8.106 15.466 8.442 15.074L9.898 16.418C9.43133 16.9873 8.85267 17.4213 8.162 17.72C7.48067 18.0187 6.71067 18.168 5.852 18.168ZM16.0546 18V16.53L15.9146 16.208V13.576C15.9146 13.1093 15.7699 12.7453 15.4806 12.484C15.2006 12.2227 14.7666 12.092 14.1786 12.092C13.7772 12.092 13.3806 12.1573 12.9886 12.288C12.6059 12.4093 12.2792 12.5773 12.0086 12.792L11.2246 11.266C11.6352 10.9767 12.1299 10.7527 12.7086 10.594C13.2872 10.4353 13.8752 10.356 14.4726 10.356C15.6206 10.356 16.5119 10.6267 17.1466 11.168C17.7812 11.7093 18.0986 12.554 18.0986 13.702V18H16.0546ZM13.7586 18.112C13.1706 18.112 12.6666 18.014 12.2466 17.818C11.8266 17.6127 11.5046 17.3373 11.2806 16.992C11.0566 16.6467 10.9446 16.2593 10.9446 15.83C10.9446 15.382 11.0519 14.99 11.2666 14.654C11.4906 14.318 11.8406 14.0567 12.3166 13.87C12.7926 13.674 13.4132 13.576 14.1786 13.576H16.1806V14.85H14.4166C13.9032 14.85 13.5486 14.934 13.3526 15.102C13.1659 15.27 13.0726 15.48 13.0726 15.732C13.0726 16.012 13.1799 16.236 13.3946 16.404C13.6186 16.5627 13.9219 16.642 14.3046 16.642C14.6686 16.642 14.9952 16.558 15.2846 16.39C15.5739 16.2127 15.7839 15.956 15.9146 15.62L16.2506 16.628C16.0919 17.1133 15.8026 17.482 15.3826 17.734C14.9626 17.986 14.4212 18.112 13.7586 18.112ZM23.3552 18.112C22.4685 18.112 21.7779 17.888 21.2832 17.44C20.7885 16.9827 20.5412 16.306 20.5412 15.41V8.802H22.7252V15.382C22.7252 15.6993 22.8092 15.9467 22.9772 16.124C23.1452 16.292 23.3739 16.376 23.6632 16.376C24.0085 16.376 24.3025 16.2827 24.5452 16.096L25.1332 17.636C24.9092 17.7947 24.6385 17.916 24.3212 18C24.0132 18.0747 23.6912 18.112 23.3552 18.112ZM19.3792 12.316V10.636H24.6012V12.316H19.3792Z" fill="#23A6F0"/>
</g>
<rect x="272" width="26" height="26" rx="13" fill="#252B42"/>
<g clip-path="url(#clip2_349_4077)">
<path d="M292.5 11.3H286.775L285 5.75L283.225 11.3H277.5L282.125 14.725L280.375 20.25L285 16.825L289.625 20.25L287.85 14.7L292.5 11.3Z" fill="#FFCE31"/>
</g>
</g>
<defs>
<clipPath id="clip0_349_4077">
<rect width="298" height="26" fill="white"/>
</clipPath>
<clipPath id="clip1_349_4077">
<rect width="26" height="24" fill="white" transform="translate(0 1)"/>
</clipPath>
<clipPath id="clip2_349_4077">
<rect width="16" height="16" fill="white" transform="translate(277 5)"/>
</clipPath>
</defs>
</svg>
