<svg width="25" height="24" viewBox="0 0 25 24" fill="none" xmlns="http://www.w3.org/2000/svg">
<path fill-rule="evenodd" clip-rule="evenodd" d="M17.8536 4.35359L4.85359 17.3536L4.14648 16.6465L17.1465 3.64648L17.8536 4.35359Z" fill="#2D2D2D"/>
<path fill-rule="evenodd" clip-rule="evenodd" d="M14.4764 2.13349C14.3017 1.95876 14.0082 1.95876 13.8335 2.13349L2.63349 13.3335C2.45876 13.5082 2.45876 13.8017 2.63349 13.9764L10.5235 21.8664C10.6982 22.0411 10.9917 22.0411 11.1664 21.8664L22.3664 10.6664C22.538 10.4948 22.5452 10.2093 22.3636 10.0207L14.4764 2.13349ZM13.1264 1.42639C13.6917 0.861126 14.6182 0.861126 15.1835 1.42639L23.0782 9.3211C23.6347 9.8926 23.6413 10.8057 23.0735 11.3735L11.8735 22.5735C11.3082 23.1388 10.3817 23.1388 9.81639 22.5735L1.92639 14.6835C1.36113 14.1182 1.36113 13.1917 1.92639 12.6264L13.1264 1.42639Z" fill="#2D2D2D"/>
</svg>
