<svg width="31" height="30" viewBox="0 0 31 30" fill="none" xmlns="http://www.w3.org/2000/svg">
<path fill-rule="evenodd" clip-rule="evenodd" d="M6.1 2L5.99934 1.99994C5.54244 1.9995 5.14858 1.99913 4.79966 2.0829C3.70272 2.34624 2.84624 3.20272 2.5829 4.29966C2.49913 4.64858 2.4995 5.04244 2.49994 5.49934L2.5 5.6V10.4L2.49994 10.5007C2.4995 10.9576 2.49913 11.3514 2.5829 11.7003C2.84624 12.7973 3.70272 13.6538 4.79966 13.9171C5.14858 14.0009 5.54244 14.0005 5.99934 14.0001L6.1 14H10.9L11.0007 14.0001C11.4576 14.0005 11.8514 14.0009 12.2003 13.9171C13.2973 13.6538 14.1538 12.7973 14.4171 11.7003C14.5009 11.3514 14.5005 10.9576 14.5001 10.5007L14.5 10.4V5.6L14.5001 5.49934C14.5005 5.04244 14.5009 4.64858 14.4171 4.29966C14.1538 3.20272 13.2973 2.34624 12.2003 2.0829C11.8514 1.99913 11.4576 1.9995 11.0007 1.99994L10.9 2H6.1ZM5.26656 4.02764C5.35264 4.00696 5.48444 4 6.1 4H10.9C11.5156 4 11.6474 4.00696 11.7334 4.02764C12.0991 4.11542 12.3846 4.4009 12.4724 4.76656C12.493 4.85264 12.5 4.98444 12.5 5.6V10.4C12.5 11.0156 12.493 11.1474 12.4724 11.2334C12.3846 11.5991 12.0991 11.8846 11.7334 11.9724C11.6474 11.993 11.5156 12 10.9 12H6.1C5.48444 12 5.35264 11.993 5.26656 11.9724C4.9009 11.8846 4.61542 11.5991 4.52764 11.2334C4.50696 11.1474 4.5 11.0156 4.5 10.4V5.6C4.5 4.98444 4.50696 4.85264 4.52764 4.76656C4.61542 4.4009 4.9009 4.11542 5.26656 4.02764ZM20.1 2L19.9993 1.99994C19.5424 1.9995 19.1486 1.99913 18.7997 2.0829C17.7027 2.34624 16.8462 3.20272 16.5829 4.29966C16.4991 4.64858 16.4995 5.04244 16.4999 5.49934L16.5 5.6V10.4L16.4999 10.5007C16.4995 10.9576 16.4991 11.3514 16.5829 11.7003C16.8462 12.7973 17.7027 13.6538 18.7997 13.9171C19.1486 14.0009 19.5424 14.0005 19.9993 14.0001L20.1 14H24.9L25.0006 14.0001C25.4576 14.0005 25.8514 14.0009 26.2004 13.9171C27.2972 13.6538 28.1538 12.7973 28.4172 11.7003C28.5008 11.3514 28.5006 10.9576 28.5 10.5007V10.4V5.6V5.49934C28.5006 5.04244 28.5008 4.64858 28.4172 4.29966C28.1538 3.20272 27.2972 2.34624 26.2004 2.0829C25.8514 1.99913 25.4576 1.9995 25.0006 1.99994L24.9 2H20.1ZM19.2666 4.02764C19.3526 4.00696 19.4844 4 20.1 4H24.9C25.5156 4 25.6474 4.00696 25.7334 4.02764C26.099 4.11542 26.3846 4.4009 26.4724 4.76656C26.493 4.85264 26.5 4.98444 26.5 5.6V10.4C26.5 11.0156 26.493 11.1474 26.4724 11.2334C26.3846 11.5991 26.099 11.8846 25.7334 11.9724C25.6474 11.993 25.5156 12 24.9 12H20.1C19.4844 12 19.3526 11.993 19.2666 11.9724C18.9009 11.8846 18.6154 11.5991 18.5276 11.2334C18.507 11.1474 18.5 11.0156 18.5 10.4V5.6C18.5 4.98444 18.507 4.85264 18.5276 4.76656C18.6154 4.4009 18.9009 4.11542 19.2666 4.02764ZM5.99934 15.9999L6.1 16H10.9L11.0007 15.9999C11.4576 15.9995 11.8514 15.9991 12.2003 16.0829C13.2973 16.3462 14.1538 17.2027 14.4171 18.2997C14.5009 18.6486 14.5005 19.0424 14.5001 19.4993L14.5 19.6V24.4L14.5001 24.5006C14.5005 24.9576 14.5009 25.3514 14.4171 25.7004C14.1538 26.7972 13.2973 27.6538 12.2003 27.9172C11.8514 28.0008 11.4576 28.0006 11.0007 28H10.9H6.1H5.99934C5.54244 28.0006 5.14858 28.0008 4.79966 27.9172C3.70272 27.6538 2.84624 26.7972 2.5829 25.7004C2.49913 25.3514 2.4995 24.9576 2.49994 24.5006L2.5 24.4V19.6L2.49994 19.4993C2.4995 19.0424 2.49913 18.6486 2.5829 18.2997C2.84624 17.2027 3.70272 16.3462 4.79966 16.0829C5.14858 15.9991 5.54244 15.9995 5.99934 15.9999ZM6.1 18C5.48444 18 5.35264 18.007 5.26656 18.0276C4.9009 18.1154 4.61542 18.4009 4.52764 18.7666C4.50696 18.8526 4.5 18.9844 4.5 19.6V24.4C4.5 25.0156 4.50696 25.1474 4.52764 25.2334C4.61542 25.599 4.9009 25.8846 5.26656 25.9724C5.35264 25.993 5.48444 26 6.1 26H10.9C11.5156 26 11.6474 25.993 11.7334 25.9724C12.0991 25.8846 12.3846 25.599 12.4724 25.2334C12.493 25.1474 12.5 25.0156 12.5 24.4V19.6C12.5 18.9844 12.493 18.8526 12.4724 18.7666C12.3846 18.4009 12.0991 18.1154 11.7334 18.0276C11.6474 18.007 11.5156 18 10.9 18H6.1ZM20.1 16L19.9993 15.9999C19.5424 15.9995 19.1486 15.9991 18.7997 16.0829C17.7027 16.3462 16.8462 17.2027 16.5829 18.2997C16.4991 18.6486 16.4995 19.0424 16.4999 19.4993L16.5 19.6V24.4L16.4999 24.5006C16.4995 24.9576 16.4991 25.3514 16.5829 25.7004C16.8462 26.7972 17.7027 27.6538 18.7997 27.9172C19.1486 28.0008 19.5424 28.0006 19.9993 28H20.1H24.9H25.0006C25.4576 28.0006 25.8514 28.0008 26.2004 27.9172C27.2972 27.6538 28.1538 26.7972 28.4172 25.7004C28.5008 25.3514 28.5006 24.9576 28.5 24.5006V24.4V19.6V19.4993C28.5006 19.0424 28.5008 18.6486 28.4172 18.2997C28.1538 17.2027 27.2972 16.3462 26.2004 16.0829C25.8514 15.9991 25.4576 15.9995 25.0006 15.9999L24.9 16H20.1ZM19.2666 18.0276C19.3526 18.007 19.4844 18 20.1 18H24.9C25.5156 18 25.6474 18.007 25.7334 18.0276C26.099 18.1154 26.3846 18.4009 26.4724 18.7666C26.493 18.8526 26.5 18.9844 26.5 19.6V24.4C26.5 25.0156 26.493 25.1474 26.4724 25.2334C26.3846 25.599 26.099 25.8846 25.7334 25.9724C25.6474 25.993 25.5156 26 24.9 26H20.1C19.4844 26 19.3526 25.993 19.2666 25.9724C18.9009 25.8846 18.6154 25.599 18.5276 25.2334C18.507 25.1474 18.5 25.0156 18.5 24.4V19.6C18.5 18.9844 18.507 18.8526 18.5276 18.7666C18.6154 18.4009 18.9009 18.1154 19.2666 18.0276Z" fill="#2D2D2D"/>
</svg>
