<svg width="261" height="109" viewBox="0 0 261 109" fill="none" xmlns="http://www.w3.org/2000/svg">
<path d="M218.564 14C229.431 14.0667 239.097 17.7333 247.564 25C256.031 32.2 260.264 41.5 260.264 52.9C260.264 65.1 256.331 75.0667 248.464 82.8C240.664 90.5333 230.697 94.4 218.564 94.4C206.497 94.4 196.531 90.5333 188.664 82.8C180.797 75.0667 176.864 65.1 176.864 52.9C176.864 41.5 181.097 32.2 189.564 25C198.031 17.7333 207.697 14.1 218.564 14.1V14ZM218.564 33C212.697 33.0667 207.664 35.1333 203.464 39.2C199.331 43.2 197.264 47.8 197.264 53C197.264 59.4667 199.331 64.8333 203.464 69.1C207.664 73.3667 212.697 75.5 218.564 75.5C224.431 75.5 229.431 73.3667 233.564 69.1C237.764 64.8333 239.864 59.4667 239.864 53C239.864 47.8 237.764 43.2 233.564 39.2C229.431 35.1333 224.431 33.1 218.564 33.1V33Z" fill="black"/>
<path d="M218.564 33C212.697 33.0667 207.664 35.1333 203.464 39.2C199.331 43.2 197.264 47.8 197.264 53C197.264 59.4667 199.331 64.8333 203.464 69.1C207.664 73.3667 212.697 75.5 218.564 75.5C224.431 75.5 229.431 73.3667 233.564 69.1C237.764 64.8333 239.864 59.4667 239.864 53C239.864 47.8 237.764 43.2 233.564 39.2C229.431 35.1333 224.431 33.1 218.564 33.1V33Z" fill="black"/>
<path d="M151.695 61L175.395 91.9H150.995L132.495 62.9H132.295V91.9H112.695V16.5H141.995C149.462 16.5667 155.695 18.4667 160.695 22.2C165.695 25.8667 168.195 31.7333 168.195 39.8C168.195 45 166.762 49.6333 163.895 53.7C161.095 57.7 157.029 60.1667 151.695 61.1V61ZM132.295 31.5V50.3H134.195C134.529 50.3667 134.862 50.4 135.195 50.4C135.529 50.4 135.829 50.4 136.095 50.4C139.029 50.2667 141.695 49.6 144.095 48.4C146.562 47.1333 147.795 44.6667 147.795 41C147.795 37.3333 146.562 34.9 144.095 33.7C141.695 32.4333 139.029 31.7333 136.095 31.6C135.829 31.6 135.529 31.6 135.195 31.6C134.862 31.6 134.529 31.6 134.195 31.6L132.295 31.5Z" fill="black"/>
<path d="M99.8734 16.5V91.9H80.2734V16.5H99.8734Z" fill="black"/>
<path d="M19.6 45.6H47.9V16.5H67.5V91.9H47.9V61H19.6V91.9H0V16.5H19.6V45.6Z" fill="black"/>
<path d="M209.475 31.4C212.425 30.975 215.55 34.2 216.45 38.65C217.35 43.075 215.725 47.025 212.775 47.475C209.85 47.925 206.7 44.7 205.775 40.25C204.85 35.825 206.525 31.875 209.475 31.4ZM227.35 31.4C230.325 31.875 231.975 35.825 231.1 40.25C230.15 44.7 227.025 47.925 224.075 47.475C221.1 47.025 219.475 43.075 220.4 38.65C221.3 34.2 224.425 30.975 227.35 31.4ZM196.1 42.9C198.95 41.675 202.825 43.9 204.85 47.775C206.75 51.725 206.1 55.875 203.275 57.1C200.45 58.325 196.6 56.125 194.625 52.2C192.65 48.275 193.35 44.1 196.1 42.9ZM241.1 42.9C243.85 44.1 244.55 48.275 242.575 52.2C240.6 56.125 236.75 58.325 233.925 57.1C231.1 55.875 230.45 51.725 232.35 47.775C234.375 43.9 238.25 41.675 241.1 42.9ZM236.925 69.85C237.025 72.2 235.225 74.8 233.075 75.775C228.6 77.825 223.3 73.575 218.325 73.575C213.35 73.575 208 78 203.6 75.775C201.1 74.55 199.375 71.3 199.7 68.6C200.15 64.875 204.625 62.875 207.275 60.15C210.8 56.625 213.3 50 218.325 50C223.325 50 225.975 56.525 229.35 60.15C232.125 63.2 236.75 65.775 236.925 69.85Z" fill="white"/>
</svg>
