<svg width="21" height="20" viewBox="0 0 21 20" fill="none" xmlns="http://www.w3.org/2000/svg">
<path fill-rule="evenodd" clip-rule="evenodd" d="M10.8391 1.09272C10.6299 0.969095 10.37 0.969095 10.1608 1.09272L2.8275 5.42605C2.62452 5.54599 2.49999 5.76423 2.49999 6C2.49999 6.23577 2.62452 6.45401 2.8275 6.57395L10.1608 10.9073C10.37 11.0309 10.6299 11.0309 10.8391 10.9073L18.1724 6.57395C18.3755 6.45401 18.5 6.23577 18.5 6C18.5 5.76423 18.3755 5.54599 18.1724 5.42605L10.8391 1.09272ZM10.5 9.55897L4.47711 6L10.5 2.44103L16.5228 6L10.5 9.55897ZM2.59271 9.99419C2.78002 9.6772 3.18883 9.57208 3.5058 9.75939L10.5 13.8923L17.4942 9.75939C17.8111 9.57208 18.2199 9.6772 18.4072 9.99419C18.5946 10.3112 18.4895 10.72 18.1724 10.9073L10.8391 15.2407C10.6299 15.3643 10.37 15.3643 10.1608 15.2407L2.8275 10.9073C2.51052 10.72 2.40539 10.3112 2.59271 9.99419ZM2.5927 13.9941C2.78002 13.6772 3.18882 13.5721 3.5058 13.7593L10.5 17.8923L17.4942 13.7593C17.8111 13.5721 18.2199 13.6772 18.4072 13.9941C18.5946 14.3112 18.4895 14.72 18.1724 14.9073L10.8391 19.2407C10.6299 19.3643 10.37 19.3643 10.1608 19.2407L2.8275 14.9073C2.51051 14.72 2.40539 14.3112 2.5927 13.9941Z" fill="#2D2D2D"/>
</svg>
