<svg width="32" height="34" viewBox="0 0 32 34" fill="none" xmlns="http://www.w3.org/2000/svg">
<path d="M12.9894 33.2368C11.197 33.228 9.74356 31.7818 9.72583 29.9894H16.2205C16.224 30.4235 16.1412 30.854 15.977 31.2559C15.551 32.2333 14.681 32.9463 13.6389 33.1718H13.6308H13.6064H13.5772H13.5626C13.3739 33.2111 13.1821 33.2328 12.9894 33.2368ZM25.9789 28.3657H0V25.1184L3.24736 23.4947V14.5645C3.16182 12.2736 3.67915 10.0005 4.74764 7.97232C5.81121 6.09131 7.62917 4.75561 9.74207 4.3028V0.763184H16.2368V4.3028C20.4243 5.29974 22.7315 8.94328 22.7315 14.5645V23.4947L25.9789 25.1184V28.3657Z" fill="#2D2D2D"/>
<circle cx="23.9112" cy="8.88152" r="6.68879" fill="#EC5252" stroke="white" stroke-width="1.2"/>
</svg>
