<svg width="21" height="20" viewBox="0 0 21 20" fill="none" xmlns="http://www.w3.org/2000/svg">
<path fill-rule="evenodd" clip-rule="evenodd" d="M2.5 7C3.05228 7 3.5 6.55228 3.5 6C3.5 5.44772 3.05228 5 2.5 5C1.94772 5 1.5 5.44772 1.5 6C1.5 6.55228 1.94772 7 2.5 7ZM5.83333 6C5.83333 5.63181 6.13181 5.33333 6.5 5.33333H18.5C18.8681 5.33333 19.1667 5.63181 19.1667 6C19.1667 6.36819 18.8681 6.66667 18.5 6.66667H6.5C6.13181 6.66667 5.83333 6.36819 5.83333 6ZM6.5 9.33333C6.13181 9.33333 5.83333 9.63181 5.83333 10C5.83333 10.3682 6.13181 10.6667 6.5 10.6667H18.5C18.8681 10.6667 19.1667 10.3682 19.1667 10C19.1667 9.63181 18.8681 9.33333 18.5 9.33333H6.5ZM6.5 13.3333C6.13181 13.3333 5.83333 13.6319 5.83333 14C5.83333 14.3681 6.13181 14.6667 6.5 14.6667H18.5C18.8681 14.6667 19.1667 14.3681 19.1667 14C19.1667 13.6319 18.8681 13.3333 18.5 13.3333H6.5ZM3.5 10C3.5 10.5523 3.05228 11 2.5 11C1.94772 11 1.5 10.5523 1.5 10C1.5 9.44772 1.94772 9 2.5 9C3.05228 9 3.5 9.44772 3.5 10ZM2.5 15C3.05228 15 3.5 14.5523 3.5 14C3.5 13.4477 3.05228 13 2.5 13C1.94772 13 1.5 13.4477 1.5 14C1.5 14.5523 1.94772 15 2.5 15Z" fill="#2D2D2D"/>
</svg>
